<svg width="87" height="87" viewBox="0 0 87 87" fill="none" xmlns="http://www.w3.org/2000/svg">
<g clip-path="url(#clip0_0_3)">
<rect x="15" y="11" width="56" height="62" fill="white"/>
<path d="M61.5666 0H25.1451C11.1037 0 0 11.1029 0 25.146V61.5674C0 75.6088 11.1037 86.7135 25.1451 86.7135H61.5666C75.6097 86.7135 86.7135 75.6088 86.7135 61.5674V25.146C86.7135 11.1029 75.6097 0 61.5666 0ZM52.1581 66.1694C47.4854 69.3513 39.2316 69.3513 36.4453 69.2522C33.6616 69.1522 27.9925 70.5449 22.6234 71.6386C17.2542 72.7322 15.7836 67.9595 15.9597 65.8695C16.1358 63.7822 16.1588 64.1795 17.0534 59.0085C17.9479 53.8376 26.9989 35.8366 28.2898 34.1766C29.5826 32.514 30.8992 29.1808 32.1698 25.8937C33.1838 23.2649 36.7444 19.031 38.6335 16.4455C40.5226 13.86 42.909 15.1527 45.3963 15.9491C47.8818 16.7437 48.0817 18.1355 48.0817 18.1355C48.0817 18.1355 48.2808 25.9919 47.1863 28.5774C46.0926 31.1646 41.6384 28.5287 41.219 27.6819C40.7987 26.8387 41.6393 24.7788 43.3346 25.3469C44.707 25.8079 44.5008 24.1824 44.5008 24.1824L41.6163 23.5843C41.6163 23.5843 39.9572 25.0398 39.8342 26.6308C39.7997 27.0785 39.5511 28.9756 42.6338 29.9692C42.6338 29.9692 42.6338 32.2574 38.4512 33.0334C37.7929 35.2508 36.747 47.9508 36.3498 50.9353C35.9525 53.9181 33.3617 55.4267 31.3726 56.8194C29.3835 58.2122 30.401 58.7086 31.3726 58.4095C32.3459 58.1122 32.6653 58.2122 37.639 52.9412C42.6108 47.6703 50.7645 48.4649 50.7645 48.4649C58.2237 37.0293 68.3665 42.5975 68.3665 42.5975C68.3665 42.5975 70.0583 61.1949 70.0813 61.2931C65.3306 59.2085 56.8327 62.9867 52.1581 66.1694Z" fill="#BF2051"/>
</g>
<defs>
<clipPath id="clip0_0_3">
<rect width="86.7135" height="86.7135" fill="white"/>
</clipPath>
</defs>
</svg>
