<svg width="120" height="60" viewBox="0 0 120 60" fill="none" xmlns="http://www.w3.org/2000/svg">
<path d="M1.19337 40.9918C1.19337 39.893 1.35249 38.8617 1.67072 37.8978C2.00664 36.9147 2.48398 36.0665 3.10277 35.3532C3.72155 34.6207 4.47293 34.0424 5.35691 33.6183C6.24089 33.1942 7.2486 32.9821 8.38011 32.9821C9.12266 32.9821 9.80334 33.0593 10.4221 33.2135C11.0409 33.3484 11.642 33.5508 12.2254 33.8207L11.4033 37.2617C11.032 37.1075 10.6254 36.9725 10.1834 36.8568C9.74142 36.7412 9.24644 36.6834 8.69835 36.6834C7.5315 36.6834 6.65636 37.0786 6.07293 37.8689C5.50719 38.6593 5.22431 39.7003 5.22431 40.9918C5.22431 42.3605 5.48951 43.4207 6.01989 44.1725C6.56796 44.9243 7.51379 45.3002 8.85746 45.3002C9.33481 45.3002 9.8475 45.2521 10.3956 45.1556C10.9437 45.0593 11.4475 44.9051 11.9072 44.693L12.4641 48.2207C12.0044 48.4328 11.4298 48.6159 10.7403 48.7701C10.0508 48.9244 9.29059 49.0014 8.45967 49.0014C7.18674 49.0014 6.09061 48.799 5.17128 48.3942C4.25194 47.9701 3.49172 47.4015 2.89061 46.6882C2.30719 45.975 1.87404 45.1364 1.59116 44.1725C1.32597 43.1894 1.19337 42.1292 1.19337 40.9918ZM27.4902 40.9629C27.4902 42.1581 27.3311 43.2569 27.0129 44.2593C26.6946 45.2424 26.2349 46.0906 25.6339 46.8038C25.0327 47.4978 24.3079 48.0376 23.4593 48.4231C22.6283 48.8087 21.6913 49.0014 20.6482 49.0014C19.6228 49.0014 18.6858 48.8087 17.8372 48.4231C17.0062 48.0376 16.2902 47.4978 15.6891 46.8038C15.088 46.0906 14.6195 45.2424 14.2836 44.2593C13.9477 43.2569 13.7797 42.1581 13.7797 40.9629C13.7797 39.7677 13.9477 38.6785 14.2836 37.6954C14.6372 36.7123 15.1145 35.8737 15.7156 35.1797C16.3344 34.4858 17.0592 33.9461 17.8902 33.5605C18.7388 33.1749 19.6581 32.9821 20.6482 32.9821C21.656 32.9821 22.5753 33.1749 23.4062 33.5605C24.2549 33.9461 24.9797 34.4858 25.5808 35.1797C26.1819 35.8737 26.6504 36.7123 26.9863 37.6954C27.3222 38.6785 27.4902 39.7677 27.4902 40.9629ZM23.4593 40.9629C23.4593 39.6328 23.2117 38.5918 22.7167 37.84C22.2394 37.0689 21.5499 36.6834 20.6482 36.6834C19.7466 36.6834 19.0482 37.0689 18.5532 37.84C18.0581 38.5918 17.8107 39.6328 17.8107 40.9629C17.8107 42.293 18.0581 43.3533 18.5532 44.1436C19.0482 44.9147 19.7466 45.3002 20.6482 45.3002C21.5499 45.3002 22.2394 44.9147 22.7167 44.1436C23.2117 43.3533 23.4593 42.293 23.4593 40.9629ZM36.1202 48.8858C34.971 48.8665 34.034 48.7316 33.3092 48.4809C32.6019 48.2304 32.0362 47.8834 31.6119 47.44C31.2052 46.9773 30.9224 46.4279 30.7633 45.7918C30.6218 45.1364 30.5511 44.4038 30.5511 43.5942V26.852L34.5025 26.1581V42.7267C34.5025 43.1123 34.529 43.4593 34.5821 43.7677C34.6351 44.0762 34.7323 44.3364 34.8738 44.5484C35.0329 44.7605 35.2539 44.934 35.5368 45.0689C35.8196 45.2039 36.1998 45.2906 36.6771 45.3291L36.1202 48.8858ZM44.511 48.8858C43.3619 48.8665 42.4248 48.7316 41.7 48.4809C40.9928 48.2304 40.4271 47.8834 40.0028 47.44C39.5962 46.9773 39.3133 46.4279 39.1541 45.7918C39.0127 45.1364 38.942 44.4038 38.942 43.5942V26.852L42.8934 26.1581V42.7267C42.8934 43.1123 42.9199 43.4593 42.9729 43.7677C43.026 44.0762 43.1232 44.3364 43.2646 44.5484C43.4238 44.7605 43.6447 44.934 43.9276 45.0689C44.2105 45.2039 44.5906 45.2906 45.068 45.3291L44.511 48.8858ZM46.6699 41.1075C46.6699 39.7581 46.8556 38.5822 47.2268 37.5797C47.6157 36.5581 48.1196 35.7099 48.7384 35.0352C49.3572 34.3605 50.0644 33.8496 50.86 33.5026C51.6732 33.1556 52.5042 32.9821 53.3528 32.9821C55.3329 32.9821 56.8975 33.6472 58.0467 34.9773C59.1959 36.2882 59.7705 38.2256 59.7705 40.7894C59.7705 41.04 59.7616 41.3195 59.744 41.6279C59.7263 41.9171 59.7086 42.1773 59.6909 42.4087H50.7274C50.8158 43.2954 51.1958 43.999 51.8677 44.5195C52.5395 45.04 53.4412 45.3002 54.5727 45.3002C55.2975 45.3002 56.0047 45.2328 56.6942 45.0978C57.4014 44.9436 57.976 44.7605 58.418 44.5484L58.9484 48.0472C58.7362 48.1629 58.4533 48.2785 58.0998 48.3942C57.7461 48.5099 57.3483 48.6063 56.9064 48.6834C56.4821 48.7798 56.0224 48.8568 55.5274 48.9147C55.0323 48.9725 54.5373 49.0014 54.0423 49.0014C52.787 49.0014 51.6909 48.799 50.7539 48.3942C49.8345 47.9894 49.0655 47.44 48.4467 46.746C47.8456 46.0328 47.3948 45.1942 47.0942 44.2303C46.8113 43.2665 46.6699 42.2255 46.6699 41.1075ZM55.9517 39.4593C55.934 39.093 55.8721 38.7364 55.7661 38.3894C55.6776 38.0424 55.5274 37.734 55.3152 37.4641C55.1207 37.1942 54.8644 36.9725 54.5462 36.799C54.2456 36.6255 53.8655 36.5388 53.4058 36.5388C52.9638 36.5388 52.5837 36.6255 52.2655 36.799C51.9473 36.9533 51.6821 37.1653 51.4699 37.4352C51.2578 37.7051 51.0898 38.0232 50.9661 38.3894C50.86 38.7364 50.7804 39.093 50.7274 39.4593H55.9517ZM62.1568 40.9918C62.1568 39.893 62.3159 38.8617 62.6341 37.8978C62.97 36.9147 63.4474 36.0665 64.0661 35.3532C64.685 34.6207 65.4363 34.0424 66.3202 33.6183C67.204 33.1942 68.2117 32.9821 69.3434 32.9821C70.086 32.9821 70.7669 33.0593 71.3854 33.2135C72.004 33.3484 72.6053 33.5508 73.1887 33.8207L72.3666 37.2617C71.9954 37.1075 71.589 36.9725 71.1467 36.8568C70.7045 36.7412 70.2099 36.6834 69.6617 36.6834C68.4948 36.6834 67.6197 37.0786 67.0362 37.8689C66.4707 38.6593 66.1877 39.7003 66.1877 40.9918C66.1877 42.3605 66.4528 43.4207 66.9832 44.1725C67.5315 44.9243 68.4769 45.3002 69.8208 45.3002C70.2981 45.3002 70.8106 45.2521 71.3589 45.1556C71.9072 45.0593 72.4111 44.9051 72.8705 44.693L73.4274 48.2207C72.968 48.4328 72.3932 48.6159 71.7036 48.7701C71.0141 48.9244 70.2537 49.0014 69.423 49.0014C68.1501 49.0014 67.0541 48.799 66.1347 48.3942C65.2154 47.9701 64.4551 47.4015 63.854 46.6882C63.2706 45.975 62.8374 45.1364 62.5545 44.1725C62.2894 43.1894 62.1568 42.1292 62.1568 40.9918ZM75.9467 29.599L79.8981 28.905V33.387H84.6451V36.9725H79.8981V42.3219C79.8981 43.228 80.0393 43.9509 80.3224 44.4906C80.6228 45.0304 81.2155 45.3002 82.0992 45.3002C82.5235 45.3002 82.9565 45.2617 83.3987 45.1846C83.8581 45.0882 84.2738 44.9629 84.6451 44.8087L85.202 48.1629C84.7246 48.375 84.1943 48.5581 83.6108 48.7123C83.0274 48.8665 82.3114 48.9436 81.4628 48.9436C80.3841 48.9436 79.4917 48.7894 78.7843 48.4809C78.0769 48.1533 77.5114 47.7099 77.0871 47.1508C76.6628 46.5725 76.3624 45.8785 76.1854 45.0689C76.0263 44.2593 75.9467 43.3629 75.9467 42.3797V29.599ZM92.1753 46.3123C92.1753 47.1797 91.9187 47.8448 91.4062 48.3075C90.9109 48.7509 90.3454 48.9725 89.709 48.9725C89.0725 48.9725 88.4977 48.7509 87.9852 48.3075C87.4899 47.8448 87.2427 47.1797 87.2427 46.3123C87.2427 45.4448 87.4899 44.7894 87.9852 44.346C88.4977 43.8834 89.0725 43.652 89.709 43.652C90.3454 43.652 90.9109 43.8834 91.4062 44.346C91.9187 44.7894 92.1753 45.4448 92.1753 46.3123ZM98.7806 48.5966H94.8292V33.387H98.7806V48.5966ZM99.1518 28.9918C99.1518 29.7822 98.9131 30.4087 98.4358 30.8713C97.9764 31.3147 97.4281 31.5364 96.7916 31.5364C96.1551 31.5364 95.5982 31.3147 95.1209 30.8713C94.6614 30.4087 94.4314 29.7822 94.4314 28.9918C94.4314 28.2014 94.6614 27.5846 95.1209 27.1412C95.5982 26.6785 96.1551 26.4472 96.7916 26.4472C97.4281 26.4472 97.9764 26.6785 98.4358 27.1412C98.9131 27.5846 99.1518 28.2014 99.1518 28.9918ZM102.363 29.599L106.314 28.905V33.387H111.061V36.9725H106.314V42.3219C106.314 43.228 106.455 43.9509 106.738 44.4906C107.039 45.0304 107.631 45.3002 108.515 45.3002C108.939 45.3002 109.372 45.2617 109.815 45.1846C110.274 45.0882 110.69 44.9629 111.061 44.8087L111.618 48.1629C111.141 48.375 110.61 48.5581 110.027 48.7123C109.443 48.8665 108.727 48.9436 107.879 48.9436C106.8 48.9436 105.908 48.7894 105.2 48.4809C104.493 48.1533 103.927 47.7099 103.503 47.1508C103.079 46.5725 102.778 45.8785 102.601 45.0689C102.442 44.2593 102.363 43.3629 102.363 42.3797V29.599Z" fill="white"/>
<path d="M55.6499 18.6932C56.1469 19.7237 57.5001 19.7237 57.9971 18.6932L63.4432 7.40038C63.9075 6.4376 63.2672 5.28168 62.2696 5.28168H51.3775C50.3799 5.28168 49.7396 6.4376 50.2039 7.40038L55.6499 18.6932Z" fill="#351F39"/>
<path d="M64.2113 6.47794H66.1524" stroke="#351F39" stroke-width="0.5"/>
<path d="M64.2353 7.4249H65.647" stroke="#351F39" stroke-width="0.5"/>
<path d="M64.2353 8.26996H64.9412" stroke="#351F39" stroke-width="0.5"/>
</svg>
