<svg width="396" height="173" viewBox="0 0 396 173" fill="none" xmlns="http://www.w3.org/2000/svg">
<g clip-path="url(#clip0_1_4)">
<g clip-path="url(#clip1_1_4)">
<g clip-path="url(#clip2_1_4)">
<g clip-path="url(#clip3_1_4)">
<g clip-path="url(#clip4_1_4)">
<path d="M20.9803 159.467V139.227C20.9803 135.745 20.5353 133.278 19.6454 131.827C18.7459 130.377 17.2079 129.651 15.0315 129.651C14.3544 129.651 13.6531 129.685 12.9277 129.753C12.2022 129.83 11.5009 129.917 10.8238 130.014V159.467H0.0145111V122.614C0.933425 122.372 2.01194 122.116 3.25006 121.845C4.4785 121.584 5.78433 121.342 7.16753 121.12C8.54107 120.907 9.95329 120.738 11.4042 120.612C12.8551 120.496 14.2819 120.438 15.6844 120.438C18.4412 120.438 20.6804 120.786 22.4022 121.482C24.1142 122.189 25.5265 123.025 26.6388 123.993C28.1865 122.88 29.9663 122.01 31.9782 121.381C33.9805 120.752 35.828 120.438 37.5207 120.438C40.5676 120.438 43.0681 120.859 45.022 121.7C46.9855 122.551 48.5477 123.751 49.7084 125.298C50.8692 126.846 51.6672 128.684 52.1024 130.812C52.5377 132.94 52.7553 135.31 52.7553 137.921V159.467H41.946V139.227C41.946 135.745 41.5011 133.278 40.6112 131.827C39.7116 130.377 38.1736 129.651 35.9973 129.651C35.4169 129.651 34.6092 129.796 33.5742 130.086C32.5296 130.377 31.6687 130.739 30.9916 131.175C31.3301 132.287 31.5478 133.462 31.6445 134.7C31.7412 135.929 31.7896 137.244 31.7896 138.647V159.467H20.9803ZM95.1221 121.308V158.162C93.2843 158.694 90.9145 159.192 88.0126 159.656C85.1108 160.111 82.0639 160.338 78.8719 160.338C75.6315 160.338 72.9328 159.903 70.7757 159.032C68.6284 158.162 66.926 156.938 65.6685 155.361C64.411 153.794 63.5163 151.923 62.9843 149.746C62.4523 147.57 62.1863 145.176 62.1863 142.564V121.308H72.9956V141.258C72.9956 144.741 73.4551 147.256 74.374 148.803C75.2929 150.351 77.0098 151.125 79.5248 151.125C80.2986 151.125 81.1208 151.086 81.9913 151.009C82.8619 150.941 83.6357 150.859 84.3128 150.762V121.308H95.1221ZM116.233 151.705C118.216 151.705 119.618 151.512 120.441 151.125C121.263 150.738 121.674 149.988 121.674 148.876C121.674 148.005 121.142 147.241 120.078 146.583C119.014 145.935 117.394 145.2 115.217 144.378C113.525 143.749 111.987 143.096 110.603 142.419C109.23 141.742 108.059 140.93 107.092 139.982C106.125 139.043 105.375 137.921 104.843 136.616C104.311 135.31 104.045 133.738 104.045 131.9C104.045 128.321 105.375 125.492 108.035 123.412C110.695 121.333 114.347 120.293 118.99 120.293C121.311 120.293 123.536 120.496 125.664 120.902C127.792 121.318 129.485 121.768 130.742 122.251L128.856 130.667C127.598 130.231 126.23 129.845 124.75 129.506C123.28 129.167 121.626 128.998 119.788 128.998C116.402 128.998 114.71 129.941 114.71 131.827C114.71 132.263 114.782 132.65 114.927 132.988C115.072 133.327 115.362 133.656 115.798 133.975C116.233 134.284 116.823 134.618 117.568 134.976C118.322 135.344 119.28 135.745 120.441 136.18C122.81 137.051 124.769 137.907 126.317 138.748C127.864 139.6 129.083 140.518 129.973 141.505C130.873 142.501 131.501 143.604 131.859 144.813C132.227 146.022 132.411 147.425 132.411 149.021C132.411 152.793 130.994 155.647 128.16 157.581C125.335 159.516 121.335 160.483 116.16 160.483C112.775 160.483 109.955 160.193 107.702 159.613C105.457 159.032 103.9 158.549 103.03 158.162L104.843 149.384C106.681 150.109 108.567 150.675 110.502 151.081C112.436 151.497 114.347 151.705 116.233 151.705ZM138.635 140.388C138.635 137.631 139.085 135.029 139.984 132.582C140.874 130.144 142.166 128.016 143.858 126.198C145.551 124.389 147.607 122.953 150.025 121.889C152.443 120.825 155.2 120.293 158.295 120.293C160.326 120.293 162.188 120.472 163.881 120.83C165.574 121.197 167.218 121.719 168.814 122.397L166.565 131.029C165.55 130.643 164.437 130.304 163.228 130.014C162.019 129.724 160.665 129.579 159.166 129.579C155.974 129.579 153.594 130.57 152.027 132.553C150.45 134.536 149.662 137.148 149.662 140.388C149.662 143.822 150.402 146.482 151.882 148.368C153.352 150.254 155.925 151.197 159.601 151.197C160.907 151.197 162.309 151.076 163.809 150.835C165.308 150.593 166.686 150.206 167.944 149.674L169.467 158.524C168.21 159.056 166.638 159.516 164.752 159.903C162.865 160.29 160.786 160.483 158.513 160.483C155.03 160.483 152.032 159.961 149.517 158.916C147.002 157.881 144.937 156.469 143.322 154.679C141.697 152.89 140.512 150.772 139.767 148.324C139.012 145.887 138.635 143.241 138.635 140.388ZM193.48 151.27L191.956 160.193C188.813 160.145 186.264 159.806 184.31 159.177C182.346 158.549 180.799 157.668 179.667 156.537C178.526 155.395 177.752 154.012 177.346 152.387C176.93 150.772 176.722 148.948 176.722 146.917V104.913L187.531 103.172V144.741C187.531 145.708 187.604 146.578 187.749 147.352C187.894 148.126 188.174 148.779 188.59 149.311C188.996 149.843 189.587 150.278 190.36 150.617C191.134 150.955 192.174 151.173 193.48 151.27ZM197.833 140.678C197.833 137.293 198.35 134.333 199.385 131.798C200.43 129.255 201.798 127.136 203.491 125.443C205.184 123.751 207.128 122.469 209.324 121.599C211.529 120.728 213.793 120.293 216.114 120.293C221.531 120.293 225.811 121.947 228.955 125.255C232.098 128.573 233.67 133.448 233.67 139.88C233.67 140.509 233.646 141.196 233.598 141.94C233.549 142.695 233.501 143.362 233.453 143.943H208.932C209.174 146.167 210.214 147.933 212.052 149.238C213.889 150.544 216.356 151.197 219.451 151.197C221.434 151.197 223.378 151.013 225.284 150.646C227.199 150.288 228.761 149.843 229.97 149.311L231.421 158.089C230.841 158.379 230.067 158.669 229.1 158.96C228.133 159.25 227.054 159.506 225.864 159.729C224.684 159.941 223.417 160.12 222.063 160.265C220.709 160.411 219.354 160.483 218 160.483C214.566 160.483 211.578 159.975 209.034 158.96C206.499 157.944 204.396 156.551 202.722 154.781C201.058 153.021 199.825 150.931 199.022 148.513C198.229 146.095 197.833 143.483 197.833 140.678ZM208.932 136.543H223.224C223.175 135.624 223.016 134.729 222.745 133.859C222.484 132.988 222.073 132.214 221.512 131.537C220.96 130.86 220.259 130.304 219.408 129.869C218.566 129.433 217.517 129.216 216.259 129.216C215.05 129.216 214.01 129.419 213.14 129.825C212.269 130.241 211.544 130.788 210.963 131.465C210.383 132.142 209.933 132.925 209.614 133.815C209.304 134.715 209.077 135.624 208.932 136.543ZM266.824 121.961L265.01 130.884C264.043 130.643 262.906 130.386 261.6 130.115C260.295 129.854 258.892 129.724 257.393 129.724C256.716 129.724 255.903 129.782 254.955 129.898C254.017 130.024 253.306 130.159 252.822 130.304V159.467H242.013V123.34C243.948 122.663 246.23 122.019 248.861 121.41C251.502 120.81 254.442 120.51 257.683 120.51C258.263 120.51 258.965 120.544 259.787 120.612C260.609 120.689 261.431 120.786 262.253 120.902C263.075 121.028 263.898 121.173 264.72 121.337C265.542 121.511 266.243 121.719 266.824 121.961ZM278.852 153.736C278.852 155.913 278.165 157.567 276.791 158.698C275.408 159.84 273.846 160.411 272.105 160.411C270.364 160.411 268.807 159.84 267.433 158.698C266.05 157.567 265.358 155.913 265.358 153.736C265.358 151.56 266.05 149.901 267.433 148.76C268.807 147.628 270.364 147.062 272.105 147.062C273.846 147.062 275.408 147.628 276.791 148.76C278.165 149.901 278.852 151.56 278.852 153.736ZM310.554 140.678C310.554 137.341 309.805 134.666 308.305 132.655C306.806 130.652 304.581 129.651 301.631 129.651C300.664 129.651 299.769 129.685 298.947 129.753C298.125 129.83 297.448 129.917 296.916 130.014V149.529C297.593 149.964 298.478 150.327 299.571 150.617C300.654 150.907 301.752 151.052 302.864 151.052C307.991 151.052 310.554 147.594 310.554 140.678ZM321.581 140.388C321.581 143.338 321.219 146.022 320.493 148.44C319.768 150.859 318.704 152.938 317.301 154.679C315.899 156.421 314.157 157.775 312.078 158.742C309.998 159.709 307.604 160.193 304.896 160.193C303.396 160.193 301.994 160.048 300.688 159.758C299.382 159.467 298.125 159.056 296.916 158.524V172.888H286.106V122.614C287.074 122.324 288.186 122.043 289.443 121.773C290.701 121.511 292.021 121.284 293.404 121.091C294.778 120.897 296.181 120.738 297.612 120.612C299.034 120.496 300.398 120.438 301.704 120.438C304.847 120.438 307.652 120.907 310.119 121.845C312.586 122.793 314.665 124.123 316.358 125.835C318.051 127.557 319.347 129.651 320.246 132.118C321.136 134.584 321.581 137.341 321.581 140.388ZM354.735 121.961L352.921 130.884C351.954 130.643 350.817 130.386 349.511 130.115C348.206 129.854 346.803 129.724 345.304 129.724C344.627 129.724 343.814 129.782 342.866 129.898C341.928 130.024 341.217 130.159 340.733 130.304V159.467H329.924V123.34C331.859 122.663 334.141 122.019 336.772 121.41C339.413 120.81 342.354 120.51 345.594 120.51C346.174 120.51 346.876 120.544 347.698 120.612C348.52 120.689 349.342 120.786 350.164 120.902C350.987 121.028 351.809 121.173 352.631 121.337C353.453 121.511 354.154 121.719 354.735 121.961ZM395.505 140.315C395.505 143.314 395.07 146.056 394.2 148.542C393.329 151.038 392.072 153.166 390.427 154.926C388.783 156.696 386.81 158.065 384.508 159.032C382.215 159.999 379.642 160.483 376.789 160.483C373.984 160.483 371.43 159.999 369.128 159.032C366.835 158.065 364.867 156.696 363.223 154.926C361.578 153.166 360.297 151.038 359.378 148.542C358.459 146.056 357.999 143.314 357.999 140.315C357.999 137.317 358.468 134.584 359.407 132.118C360.355 129.651 361.66 127.547 363.324 125.806C364.998 124.065 366.98 122.711 369.273 121.744C371.575 120.776 374.08 120.293 376.789 120.293C379.545 120.293 382.07 120.776 384.362 121.744C386.665 122.711 388.638 124.065 390.282 125.806C391.927 127.547 393.208 129.651 394.127 132.118C395.046 134.584 395.505 137.317 395.505 140.315ZM384.479 140.315C384.479 136.978 383.811 134.352 382.476 132.437C381.151 130.531 379.255 129.579 376.789 129.579C374.322 129.579 372.412 130.531 371.058 132.437C369.703 134.352 369.026 136.978 369.026 140.315C369.026 143.652 369.703 146.298 371.058 148.252C372.412 150.215 374.322 151.197 376.789 151.197C379.255 151.197 381.151 150.215 382.476 148.252C383.811 146.298 384.479 143.652 384.479 140.315Z" fill="white"/>
</g>
</g>
</g>
</g>
<g clip-path="url(#clip5_1_4)">
<g clip-path="url(#clip6_1_4)">
<rect x="163" y="13" width="71" height="63" fill="white"/>
<path d="M215.97 0H179.548C165.507 0 154.403 11.1029 154.403 25.146V61.5674C154.403 75.6088 165.507 86.7135 179.548 86.7135H215.97C230.013 86.7135 241.117 75.6088 241.117 61.5674V25.146C241.117 11.1029 230.013 0 215.97 0ZM206.561 66.1694C201.889 69.3513 193.635 69.3513 190.849 69.2522C188.065 69.1522 182.396 70.5449 177.027 71.6386C171.657 72.7322 170.187 67.9595 170.363 65.8695C170.539 63.7822 170.562 64.1795 171.457 59.0085C172.351 53.8376 181.402 35.8366 182.693 34.1766C183.986 32.514 185.302 29.1808 186.573 25.8937C187.587 23.2649 191.148 19.031 193.037 16.4455C194.926 13.86 197.312 15.1527 199.8 15.9491C202.285 16.7437 202.485 18.1355 202.485 18.1355C202.485 18.1355 202.684 25.9919 201.59 28.5774C200.496 31.1646 196.042 28.5287 195.622 27.6819C195.202 26.8387 196.043 24.7788 197.738 25.3469C199.11 25.8079 198.904 24.1824 198.904 24.1824L196.02 23.5843C196.02 23.5843 194.36 25.0398 194.237 26.6308C194.203 27.0785 193.954 28.9756 197.037 29.9692C197.037 29.9692 197.037 32.2574 192.855 33.0334C192.196 35.2508 191.15 47.9508 190.753 50.9353C190.356 53.9181 187.765 55.4267 185.776 56.8194C183.787 58.2122 184.804 58.7086 185.776 58.4095C186.749 58.1122 187.069 58.2122 192.042 52.9412C197.014 47.6703 205.168 48.4649 205.168 48.4649C212.627 37.0293 222.77 42.5975 222.77 42.5975C222.77 42.5975 224.462 61.1949 224.485 61.2931C219.734 59.2085 211.236 62.9867 206.561 66.1694Z" fill="#BF2051"/>
</g>
</g>
</g>
<defs>
<clipPath id="clip0_1_4">
<rect width="395.52" height="172.888" fill="white"/>
</clipPath>
<clipPath id="clip1_1_4">
<rect width="395.52" height="69.7166" fill="white" transform="translate(0 103.172)"/>
</clipPath>
<clipPath id="clip2_1_4">
<rect width="395.52" height="69.7166" fill="white" transform="translate(0 103.172)"/>
</clipPath>
<clipPath id="clip3_1_4">
<rect width="395.52" height="69.7166" fill="white" transform="translate(0 103.172)"/>
</clipPath>
<clipPath id="clip4_1_4">
<rect width="395.52" height="69.7166" fill="white" transform="translate(0 103.172)"/>
</clipPath>
<clipPath id="clip5_1_4">
<rect width="86.7135" height="86.7135" fill="white" transform="translate(154.403)"/>
</clipPath>
<clipPath id="clip6_1_4">
<rect width="86.7135" height="86.7135" fill="white" transform="translate(154.403)"/>
</clipPath>
</defs>
</svg>
